<mxfile host="65bd71144e">
    <diagram id="xeqVdDOkXlhFVUrToWUn" name="Page-1">
        <mxGraphModel dx="894" dy="648" grid="1" gridSize="10" guides="1" tooltips="1" connect="1" arrows="1" fold="1" page="1" pageScale="1" pageWidth="827" pageHeight="1169" math="0" shadow="0">
            <root>
                <mxCell id="0"/>
                <mxCell id="1" parent="0"/>
                <mxCell id="3" value="MangaSource" style="swimlane;fontStyle=0;childLayout=stackLayout;horizontal=1;startSize=30;horizontalStack=0;resizeParent=1;resizeParentMax=0;resizeLast=0;collapsible=1;marginBottom=0;fontFamily=Helvetica;fontSize=20;" vertex="1" parent="1">
                    <mxGeometry x="60" y="120" width="180" height="150" as="geometry">
                        <mxRectangle x="160" y="140" width="160" height="30" as="alternateBounds"/>
                    </mxGeometry>
                </mxCell>
                <mxCell id="12" value="&lt;b&gt;name: str&lt;/b&gt;" style="rounded=0;whiteSpace=wrap;html=1;fontFamily=Helvetica;fontSize=20;" vertex="1" parent="3">
                    <mxGeometry y="30" width="180" height="60" as="geometry"/>
                </mxCell>
                <mxCell id="11" value="url: str" style="rounded=0;whiteSpace=wrap;html=1;fontFamily=Helvetica;fontSize=20;" vertex="1" parent="3">
                    <mxGeometry y="90" width="180" height="60" as="geometry"/>
                </mxCell>
                <mxCell id="19" value="Manga" style="swimlane;fontStyle=0;childLayout=stackLayout;horizontal=1;startSize=30;horizontalStack=0;resizeParent=1;resizeParentMax=0;resizeLast=0;collapsible=1;marginBottom=0;fontFamily=Helvetica;fontSize=20;" vertex="1" parent="1">
                    <mxGeometry x="380" y="50" width="180" height="330" as="geometry">
                        <mxRectangle x="160" y="140" width="160" height="30" as="alternateBounds"/>
                    </mxGeometry>
                </mxCell>
                <mxCell id="20" value="&lt;b&gt;name: str&lt;/b&gt;" style="rounded=0;whiteSpace=wrap;html=1;fontFamily=Helvetica;fontSize=20;" vertex="1" parent="19">
                    <mxGeometry y="30" width="180" height="60" as="geometry"/>
                </mxCell>
                <mxCell id="21" value="source: str" style="rounded=0;whiteSpace=wrap;html=1;fontFamily=Helvetica;fontSize=20;" vertex="1" parent="19">
                    <mxGeometry y="90" width="180" height="60" as="geometry"/>
                </mxCell>
                <mxCell id="22" value="url: str" style="rounded=0;whiteSpace=wrap;html=1;fontFamily=Helvetica;fontSize=20;" vertex="1" parent="19">
                    <mxGeometry y="150" width="180" height="60" as="geometry"/>
                </mxCell>
                <mxCell id="23" value="volume_cnt: int" style="rounded=0;whiteSpace=wrap;html=1;fontFamily=Helvetica;fontSize=20;" vertex="1" parent="19">
                    <mxGeometry y="210" width="180" height="60" as="geometry"/>
                </mxCell>
                <mxCell id="25" value="chapter_cnt: int" style="rounded=0;whiteSpace=wrap;html=1;fontFamily=Helvetica;fontSize=20;" vertex="1" parent="19">
                    <mxGeometry y="270" width="180" height="60" as="geometry"/>
                </mxCell>
                <mxCell id="27" value="any to any" style="edgeStyle=none;html=1;exitX=0;exitY=0.5;exitDx=0;exitDy=0;entryX=1;entryY=0.5;entryDx=0;entryDy=0;fontFamily=Helvetica;fontSize=20;" edge="1" parent="1" source="21" target="12">
                    <mxGeometry relative="1" as="geometry"/>
                </mxCell>
                <mxCell id="29" value="Volume" style="swimlane;fontStyle=0;childLayout=stackLayout;horizontal=1;startSize=30;horizontalStack=0;resizeParent=1;resizeParentMax=0;resizeLast=0;collapsible=1;marginBottom=0;fontFamily=Helvetica;fontSize=20;" vertex="1" parent="1">
                    <mxGeometry x="60" y="310" width="180" height="330" as="geometry">
                        <mxRectangle x="160" y="140" width="160" height="30" as="alternateBounds"/>
                    </mxGeometry>
                </mxCell>
                <mxCell id="30" value="&lt;b&gt;id: int (incrm)&lt;/b&gt;" style="rounded=0;whiteSpace=wrap;html=1;fontFamily=Helvetica;fontSize=20;" vertex="1" parent="29">
                    <mxGeometry y="30" width="180" height="60" as="geometry"/>
                </mxCell>
                <mxCell id="31" value="manga_name: str" style="rounded=0;whiteSpace=wrap;html=1;fontFamily=Helvetica;fontSize=20;" vertex="1" parent="29">
                    <mxGeometry y="90" width="180" height="60" as="geometry"/>
                </mxCell>
                <mxCell id="33" value="serial_num: int" style="rounded=0;whiteSpace=wrap;html=1;fontFamily=Helvetica;fontSize=20;" vertex="1" parent="29">
                    <mxGeometry y="150" width="180" height="60" as="geometry"/>
                </mxCell>
                <mxCell id="34" value="chapter_start: int" style="rounded=0;whiteSpace=wrap;html=1;fontFamily=Helvetica;fontSize=20;" vertex="1" parent="29">
                    <mxGeometry y="210" width="180" height="60" as="geometry"/>
                </mxCell>
                <mxCell id="44" value="chapter_end: int" style="rounded=0;whiteSpace=wrap;html=1;fontFamily=Helvetica;fontSize=20;" vertex="1" parent="29">
                    <mxGeometry y="270" width="180" height="60" as="geometry"/>
                </mxCell>
                <mxCell id="35" value="any to 1" style="edgeStyle=none;html=1;exitX=1;exitY=0.5;exitDx=0;exitDy=0;entryX=0;entryY=0.5;entryDx=0;entryDy=0;fontFamily=Helvetica;fontSize=20;" edge="1" parent="1" source="31" target="20">
                    <mxGeometry relative="1" as="geometry"/>
                </mxCell>
                <mxCell id="36" value="Chapter" style="swimlane;fontStyle=0;childLayout=stackLayout;horizontal=1;startSize=30;horizontalStack=0;resizeParent=1;resizeParentMax=0;resizeLast=0;collapsible=1;marginBottom=0;fontFamily=Helvetica;fontSize=20;" vertex="1" parent="1">
                    <mxGeometry x="610" y="280" width="180" height="390" as="geometry">
                        <mxRectangle x="160" y="140" width="160" height="30" as="alternateBounds"/>
                    </mxGeometry>
                </mxCell>
                <mxCell id="37" value="&lt;b&gt;id: int (incrm)&lt;/b&gt;" style="rounded=0;whiteSpace=wrap;html=1;fontFamily=Helvetica;fontSize=20;" vertex="1" parent="36">
                    <mxGeometry y="30" width="180" height="60" as="geometry"/>
                </mxCell>
                <mxCell id="38" value="manga_name: str" style="rounded=0;whiteSpace=wrap;html=1;fontFamily=Helvetica;fontSize=20;" vertex="1" parent="36">
                    <mxGeometry y="90" width="180" height="60" as="geometry"/>
                </mxCell>
                <mxCell id="39" value="volume_id: int" style="rounded=0;whiteSpace=wrap;html=1;fontFamily=Helvetica;fontSize=20;" vertex="1" parent="36">
                    <mxGeometry y="150" width="180" height="60" as="geometry"/>
                </mxCell>
                <mxCell id="40" value="serial_num: int" style="rounded=0;whiteSpace=wrap;html=1;fontFamily=Helvetica;fontSize=20;" vertex="1" parent="36">
                    <mxGeometry y="210" width="180" height="60" as="geometry"/>
                </mxCell>
                <mxCell id="49" value="frames_cnt: int" style="rounded=0;whiteSpace=wrap;html=1;fontFamily=Helvetica;fontSize=20;" vertex="1" parent="36">
                    <mxGeometry y="270" width="180" height="60" as="geometry"/>
                </mxCell>
                <mxCell id="50" value="frames: list[imgs]" style="rounded=0;whiteSpace=wrap;html=1;fontFamily=Helvetica;fontSize=20;" vertex="1" parent="36">
                    <mxGeometry y="330" width="180" height="60" as="geometry"/>
                </mxCell>
                <mxCell id="42" value="any to 1" style="edgeStyle=none;html=1;exitX=0;exitY=0.5;exitDx=0;exitDy=0;entryX=1;entryY=0.5;entryDx=0;entryDy=0;fontFamily=Helvetica;fontSize=20;" edge="1" parent="1" source="38" target="20">
                    <mxGeometry relative="1" as="geometry"/>
                </mxCell>
                <mxCell id="43" value="any to 1" style="edgeStyle=none;html=1;exitX=0;exitY=0.5;exitDx=0;exitDy=0;entryX=1;entryY=0.5;entryDx=0;entryDy=0;fontFamily=Helvetica;fontSize=20;" edge="1" parent="1" source="39" target="30">
                    <mxGeometry relative="1" as="geometry"/>
                </mxCell>
            </root>
        </mxGraphModel>
    </diagram>
</mxfile>